<svg version="1.1"  xmlns="http://www.w3.org/2000/svg"
	 viewBox="0 0 1732.3599854 1732.3599854"  xml:space="preserve" height="35px" widht="35px">
<style type="text/css">
	.st0{display:none;}
	.st1{display:inline;fill:#D812DD;}
	.st2{fill:#FF1EF4;}
	.st3{display:none;fill:#D812DD;}
	.st4{fill:#D812DD;}
	.st5{fill:#8B0799;}
	.st6{fill:#ED18ED;}
	.st7{fill:#D614DB;}
	.st8{fill:#BB10C4;}
	.st9{fill:#A50DB2;}
</style>
<g>
	<g class="st0">
		<polygon class="st1" points="947.178772,1349.8743896 946.1529541,1350.9003906 945.1269531,1349.8743896 		"/>
		<polygon class="st1" points="738.1181641,1349.8743896 737.934021,1350.0847168 737.7235107,1349.8743896 		"/>
		<polygon class="st1" points="598.8499756,1349.8699951 598.6699829,1350.0799561 598.4500122,1349.8699951 		"/>
	</g>
	<g>
		<polygon class="st2" points="848.4000244,1349.8499756 848.4000244,1349.8699951 848.1900024,1349.8699951 		"/>
		<path class="st2" d="M1092.6400146,998.3399658v93.0799561c7.0799561-2.0998535,14.1300049-4.2600098,21.1600342-6.4699707
			v-95.8799438C1106.7700195,992.2199707,1099.7199707,995.3099976,1092.6400146,998.3399658z M1092.6400146,998.3399658v93.0799561
			c7.0799561-2.0998535,14.1300049-4.2600098,21.1600342-6.4699707v-95.8799438
			C1106.7700195,992.2199707,1099.7199707,995.3099976,1092.6400146,998.3399658z M1092.6400146,998.3399658v93.0799561
			c7.0799561-2.0998535,14.1300049-4.2600098,21.1600342-6.4699707v-95.8799438
			C1106.7700195,992.2199707,1099.7199707,995.3099976,1092.6400146,998.3399658z M1092.6400146,998.3399658v93.0799561
			c7.0799561-2.0998535,14.1300049-4.2600098,21.1600342-6.4699707v-95.8799438
			C1106.7700195,992.2199707,1099.7199707,995.3099976,1092.6400146,998.3399658z M1092.6400146,998.3399658v93.0799561
			c7.0799561-2.0998535,14.1300049-4.2600098,21.1600342-6.4699707v-95.8799438
			C1106.7700195,992.2199707,1099.7199707,995.3099976,1092.6400146,998.3399658z M1092.6400146,998.3399658v93.0799561
			c7.0799561-2.0998535,14.1300049-4.2600098,21.1600342-6.4699707v-95.8799438
			C1106.7700195,992.2199707,1099.7199707,995.3099976,1092.6400146,998.3399658z M1092.6400146,998.3399658v93.0799561
			c7.0799561-2.0998535,14.1300049-4.2600098,21.1600342-6.4699707v-95.8799438
			C1106.7700195,992.2199707,1099.7199707,995.3099976,1092.6400146,998.3399658z M1092.6400146,998.3399658v93.0799561
			c7.0799561-2.0998535,14.1300049-4.2600098,21.1600342-6.4699707v-95.8799438
			C1106.7700195,992.2199707,1099.7199707,995.3099976,1092.6400146,998.3399658z M1092.6400146,998.3399658v93.0799561
			c7.0799561-2.0998535,14.1300049-4.2600098,21.1600342-6.4699707v-95.8799438
			C1106.7700195,992.2199707,1099.7199707,995.3099976,1092.6400146,998.3399658z M1092.6400146,998.3399658v93.0799561
			c7.0799561-2.0998535,14.1300049-4.2600098,21.1600342-6.4699707v-95.8799438
			C1106.7700195,992.2199707,1099.7199707,995.3099976,1092.6400146,998.3399658z M1092.6400146,998.3399658v93.0799561
			c7.0799561-2.0998535,14.1300049-4.2600098,21.1600342-6.4699707v-95.8799438
			C1106.7700195,992.2199707,1099.7199707,995.3099976,1092.6400146,998.3399658z M1092.6400146,998.3399658v93.0799561
			c7.0799561-2.0998535,14.1300049-4.2600098,21.1600342-6.4699707v-95.8799438
			C1106.7700195,992.2199707,1099.7199707,995.3099976,1092.6400146,998.3399658z M1092.6400146,998.3399658v93.0799561
			c7.0799561-2.0998535,14.1300049-4.2600098,21.1600342-6.4699707v-95.8799438
			C1106.7700195,992.2199707,1099.7199707,995.3099976,1092.6400146,998.3399658z M1092.6400146,998.3399658v93.0799561
			c7.0799561-2.0998535,14.1300049-4.2600098,21.1600342-6.4699707v-95.8799438
			C1106.7700195,992.2199707,1099.7199707,995.3099976,1092.6400146,998.3399658z M1092.6400146,998.3399658v93.0799561
			c7.0799561-2.0998535,14.1300049-4.2600098,21.1600342-6.4699707v-95.8799438
			C1106.7700195,992.2199707,1099.7199707,995.3099976,1092.6400146,998.3399658z M1092.6400146,998.3399658v93.0799561
			c7.0799561-2.0998535,14.1300049-4.2600098,21.1600342-6.4699707v-95.8799438
			C1106.7700195,992.2199707,1099.7199707,995.3099976,1092.6400146,998.3399658z M1092.6400146,998.3399658v93.0799561
			c7.0799561-2.0998535,14.1300049-4.2600098,21.1600342-6.4699707v-95.8799438
			C1106.7700195,992.2199707,1099.7199707,995.3099976,1092.6400146,998.3399658z M1092.6400146,998.3399658v93.0799561
			c7.0799561-2.0998535,14.1300049-4.2600098,21.1600342-6.4699707v-95.8799438
			C1106.7700195,992.2199707,1099.7199707,995.3099976,1092.6400146,998.3399658z M1465.7099609,432.5799561
			c-38.0400391,0-74.0799561,8.5800171-106.3299561,23.8600464c-72.5300293-78-176.0999756-126.7999878-291.0599365-126.7999878
			c-14.7299805,0-29.2800293,0.789978-43.6101074,2.3699951c-28.5999756-105.6000366-125.0899658-183.25-239.7099609-183.25
			c-116.6500244,0-214.4799805,80.3599854-241.1799927,188.7199707C534.710022,334.7399902,525.0300293,333.25,515.0100098,333.25
			c-54.8800049,0-99.3400269,44.4799805-99.3400269,99.3299561c0,0.7600098,0,1.4700317,0.0300293,2.2400513
			c-40.25-28.1500244-89.2600098-44.6700439-142.1099854-44.6700439
			c-137.1900024,0-248.3900146,111.2000122-248.3900146,248.3600464c0,53.3199463,16.8099976,102.7299805,45.4299927,143.2199707
			c-33.2999878,58.1099854-52.3499756,125.4500122-52.3499756,197.2399902
			c0,41.5700073,6.3999634,81.6300049,18.2099609,119.2800293c0.8900146,2.8100586,1.8099976,5.6300049,2.7600098,8.3900146
			c18.2000122,53.7698975,47.6199951,102.3299561,85.4400024,143.0098877
			c2.5800171,2.7800293,5.210022,5.5200195,7.9000244,8.2301025c4.789978,4.8499756,9.6799927,9.5699463,14.6900024,14.1700439
			v-68.7600098l-66.2400513-66.2399902V999.5c-11.3999634-3.7600098-19.6199951-14.5-19.6199951-27.1600342
			c0-15.8099976,12.8099976-28.6199951,28.6199951-28.6199951s28.6199951,12.8099976,28.6199951,28.6199951
			c0,12.6600342-8.2199707,23.4000244-19.6199951,27.1600342v130.0899658l66.2400513,66.2399902v91.7401123
			c15.3299561,12.4499512,31.5899658,23.789917,48.6699829,33.8898926c2.3499756,1.3699951,4.7099609,2.7099609,7.1099854,4.0500488
			c1.1099854,0.6300049,2.2299805,1.25,3.3499756,1.8699951v-170.5999756l19.4100342-19.4100342v-63.2800293l58.9799805-58.9799805
			V881.7799683c-9.0599976-3.6599731-15.4599609-12.539978-15.4599609-22.9099731
			c0-13.6400146,11.0599976-24.7000122,24.6999512-24.7000122c13.6400146,0,24.7000122,11.0599976,24.7000122,24.7000122
			c0,10.5499878-6.6199951,19.5599976-15.9400024,23.0899658v140.6100464l-58.9799805,58.9800415v37.8199463l52.5700073-52.5699463
			c-1.6700439-3.6201172-2.5900269-7.6501465-2.5900269-11.9001465c0-15.8099365,12.8099976-28.619873,28.6199951-28.619873
			s28.6199951,12.8099365,28.6199951,28.619873c0,15.8100586-12.8099976,28.6201172-28.6199951,28.6201172
			c-3.4699707,0-6.7999878-0.6201172-9.8800049-1.7600098l-84.1300049,84.1300049v171.2999268h-2.9499512
			c26.2999878,12.6700439,54.2099609,22.5300293,83.3200073,29.1800537
			c4.1999512-4.3599854,8.5799561-8.8499756,13.1799927-13.460083l1.9799805-1.9799805
			c0.8499756-0.8499756,1.710022-1.7099609,2.5700073-2.5699463c1.3999634-1.3900146,2.7999878-2.7800293,4.2299805-4.1800537
			c1-0.9899902,2.0200195-1.9799805,3.0400391-2.9699707c0.6899414-0.6799316,1.3799438-1.3499756,2.0799561-2.0300293
			c0.7000122-0.6799316,1.4100342-1.369873,2.1099854-2.0499268c1.4200439-1.3699951,2.8500366-2.75,4.3000488-4.1300049
			c2.1099854-2.0200195,4.25-4.0600586,6.4199829-6.1099854c2.8699951-2.710083,5.7999878-5.4500732,8.789978-8.210083
			c0.5400391-0.5100098,1.0800171-1.0100098,1.6300049-1.5100098c0.5900269-0.5499268,1.1900024-1.0998535,1.7900391-1.6499023
			c1.6199951-1.4799805,3.25-2.9799805,4.8999634-4.4799805c3.8400269-3.5,7.7800293-7.0400391,11.8099976-10.630127
			l-17.8900146-17.8898926c-2.6999512,1.0300293-5.6199951,1.5799561-8.6799927,1.5799561
			c-13.6399536,0-24.6999512-11.0499268-24.6999512-24.6900635c0-13.6499023,11.0599976-24.6999512,24.6999512-24.6999512
			c13.6400146,0,24.7000122,11.0500488,24.7000122,24.6999512c0,3.9801025-0.9400024,7.7399902-2.6199951,11.0700684
			l18.0499878,18.0500488c4.4400024-3.8400879,8.9800415-7.7199707,13.6300049-11.630127
			c1.1600342-0.9799805,2.3300171-1.9599609,3.5-2.9399414c3.5200195-2.9499512,7.1099854-5.9299316,10.7600098-8.9199219
			c1.2600098-1.0400391,2.5300293-2.0800781,3.8099976-3.1101074c2-1.6398926,4.0200195-3.2800293,6.0599976-4.9199219
			c1.210022-0.9799805,2.4299927-1.9599609,3.6600342-2.9399414c1.9400024-1.5600586,3.8999634-3.130127,5.8799438-4.6900635
			c0.5200195-0.4100342,1.0300293-0.8199463,1.5500488-1.2301025c1.0799561-0.8598633,2.1599731-1.7099609,3.25-2.5599365
			c0.7399902-0.5899658,1.4799805-1.1700439,2.2299805-1.75c0.8900146-0.6999512,1.789978-1.4000244,2.6799927-2.0999756
			c1.6500244-1.2800293,3.3099976-2.5700684,4.9799805-3.8599854c3.8600464-2.9899902,7.7700195-5.9899902,11.7400513-9
			c2.7599487-2.0899658,5.5499878-4.1900635,8.3599854-6.2900391c1.4599609-1.0899658,2.9299927-2.1900635,4.4099731-3.289917
			c2.960022-2.2000732,5.9400024-4.4001465,8.960022-6.6000977c0.4099731-0.3000488,0.8200073-0.5999756,1.2399902-0.9099121
			c2.6099854-1.9100342,5.2399902-3.8200684,7.9000244-5.7299805c5.9299927-4.2800293,11.9799805-8.5800781,18.1499634-12.9001465
			V901.9799805c-10.3499756-4.2999878-17.6199951-14.5100098-17.6199951-26.4199829
			c0-15.8099976,12.8099976-28.6199951,28.6199951-28.6199951S571.539978,859.75,571.539978,875.5599976
			c0,11.9099731-7.2699585,22.1199951-17.6199951,26.4199829v276.0100098
			c9.3400269-6.3300781,18.9299927-12.6899414,28.7700195-19.0700684c1.2299805-0.7999268,2.4699707-1.5998535,3.710022-2.3999023
			c3.7099609-2.4000244,7.4599609-4.7900391,11.2399902-7.1900635c1.2600098-0.7999268,2.5299683-1.5999756,3.7999878-2.4000244
			c1.0900269-0.6899414,2.1799927-1.3798828,3.2799683-2.0599365c0.75-0.4799805,1.5-0.9500732,2.2600098-1.4200439
			c3.8400269-2.4099121,7.7300415-4.8199463,11.6500244-7.2299805c4.2000122-2.5899658,8.4400024-5.1799316,12.7299805-7.7600098
			c2.7600098-1.6699219,5.5300293-3.3399658,8.3300171-5.0100098c2.9500122-1.7600098,5.9199829-3.5200195,8.9099731-5.2800293
			c1.4400024-0.8498535,2.8900146-1.6999512,4.3400269-2.5499268c1.3699951-0.8099365,2.75-1.6099854,4.1300049-2.4100342
			c1.3800049-0.8100586,2.7600098-1.6099854,4.1499634-2.4199219c2.7800293-1.6000977,5.5700073-3.210083,8.3800049-4.8200684
			c13.5700073-7.7600098,27.5200195-15.5200195,41.8600464-23.25c1.9899902-1.0799561,3.9899902-2.1499023,5.9899902-3.2199707
			c1.4899902-0.8000488,2.9899902-1.6000977,4.4899902-2.4000244c1.1300049-0.5999756,2.2600098-1.2000732,3.4000244-1.7999268
			c7.5799561-4.0200195,15.2699585-8.0200195,23.0699463-12.0200195c2.2900391-1.1700439,4.5900269-2.3500977,6.9000244-3.5200195
			c2.539978-1.3000488,5.0900269-2.5900879,7.6599731-3.8699951c2.5600586-1.2900391,5.1300049-2.5699463,7.710022-3.8599854
			c2.5900269-1.2900391,5.1900024-2.5800781,7.8099976-3.8601074c2.6099854-1.289917,5.2299805-2.5699463,7.8599854-3.8498535
			c1.6700439-0.8100586,3.3400269-1.6201172,5.0200195-2.4400635c11.7299805-5.6800537,23.6900024-11.3199463,35.8699951-16.9400635
			l-99.6400146-99.6399536v-88.0700073c-9.1900024-3.5899658-15.6999512-12.539978-15.6999512-23
			c0-13.6400146,11.0599976-24.7000122,24.6999512-24.7000122c13.6400146,0,24.7000122,11.0599976,24.7000122,24.7000122
			c0,10.460022-6.5100098,19.4100342-15.7000122,23v80.6099854L832,1004.25V758.5100098
			c-9.1900024-3.5900269-15.7000122-12.5400391-15.7000122-23c0-13.6400146,11.0599976-24.7000122,24.7000122-24.7000122
			s24.7000122,11.0599976,24.7000122,24.7000122c0,10.4599609-6.5100098,19.4099731-15.7000122,23v256.0899658
			c13.6900024-6.1199951,27.6599731-12.2000122,41.9099731-18.2099609
			c10.9500122-4.6300049,21.8500366-9.3800049,32.6900024-14.2700195c2.7700195-1.2399902,5.5300293-2.4899902,8.2900391-3.75
			c1.9400024-0.8800049,3.8800049-1.7700195,5.8099976-2.6699829c1.3499756-0.6200562,2.6900024-1.2400513,4.0299683-1.8600464
			c3.3600464-1.5700073,6.7200317-3.1399536,10.0700073-4.7299805c3.0200195-1.4199829,6.0300293-2.8599854,9.0400391-4.3099976
			c1.9199829-0.9199829,3.8399658-1.8499756,5.7599487-2.7800293c1.9200439-0.9299927,3.8400269-1.8599854,5.75-2.7999878
			c3.8200073-1.8800049,7.6400146-3.7699585,11.4500122-5.6699829c1.9000244-0.9400024,3.7999878-1.9000244,5.710022-2.8599854
			c1.8999634-0.9500122,3.7999878-1.9100342,5.7000122-2.8800049c1.8999634-0.960022,3.789978-1.9299927,5.6900024-2.9100342
			c1.8899536-0.9699707,3.7799683-1.9400024,5.6699829-2.9199829c2.8399658-1.460022,5.6599731-2.9299927,8.4899902-4.4199829
			c3.0100098-1.5700073,6.0100098-3.1600342,9.0100708-4.75c2.5898438-1.3699951,5.1699219-2.75,7.7399902-4.1400146
			c2.8498535-1.5299683,5.6899414-3.0599976,8.5300293-4.6099854c2.7999268-1.5200195,5.5898438-3.0499878,8.369873-4.5800171
			c2.7900391-1.5299683,5.5700684-3.0700073,8.3400879-4.6199951c2.8399658-1.5800171,5.6799316-3.1699829,8.5100098-4.7600098
			c2.6899414-1.5200195,5.369873-3.039978,8.0499268-4.5599976c0.0100098-0.0100098,0.0200195-0.0100098,0.0300293-0.0200195
			v-4.9299927c-9.1900635-3.5899658-15.7000732-12.539978-15.7000732-23c0-13.6399536,11.0600586-24.6999512,24.7000732-24.6999512
			s24.7000732,11.0599976,24.7000732,24.6999512c0,3.3099976-0.6501465,6.4700317-1.8400879,9.3500366
			c0.5900879-0.3400269,1.1799316-0.7000122,1.7700195-1.0499878c2.4399414-1.4500122,4.8800049-2.9100342,7.3100586-4.3800049
			c0.1599121-0.0900269,0.3099365-0.1800537,0.4699707-0.2800293c2.8999023-1.75,5.7900391-3.5,8.6799316-5.2600098
			c1.1999512-0.7199707,2.4000244-1.4500122,3.6000977-2.1900024c2.1899414-1.3299561,4.369873-2.6699829,6.5499268-4.0199585
			c0.0699463-0.0400391,0.1400146-0.0800171,0.2199707-0.1400146c2.5699463-1.5800171,5.1300049-3.1699829,7.6900635-4.7600098
			c2.3999023-1.5,4.8000488-2.9899902,7.1899414-4.4899902c5.0100098-3.1400146,9.9899902-6.2999878,14.9599609-9.4700317
			c1.9100342-1.2199707,3.8200684-2.4400024,5.7199707-3.6699829c2.5800781-1.6500244,5.1501465-3.3099976,7.710083-4.9799805
			c1.4700928-0.9500122,2.9300537-1.9000244,4.4000244-2.8699951c1.4699707-0.9500122,2.9299316-1.9000244,4.3800049-2.8600464
			c2.3499756-1.5299683,4.6900635-3.0699463,7.0198975-4.6199951c2.3300781-1.539978,4.6601563-3.0899658,6.9899902-4.6399536
			c2.3300781-1.5400391,4.6501465-3.0900269,6.960083-4.6500244c2.3199463-1.5499878,4.6300049-3.1099854,6.9300537-4.6699829
			c4.6098633-3.1100464,9.1999512-6.2399902,13.7600098-9.3800049c2.2800293-1.5599976,4.5599365-3.1300049,6.8299561-4.710022
			c2.2698975-1.5700073,4.539917-3.1400146,6.7999268-4.7199707c7.6900635-5.3500366,15.3200684-10.7300415,22.880127-16.1400146
			c1.7799072-1.2600098,3.5499268-2.5300293,5.3199463-3.7999878c2.8099365-2.0100098,5.6099854-4.0300293,8.4000244-6.0499878
			c1.3999023-1.0100098,2.8000488-2.0200195,4.1899414-3.0400391c1.3900146-1.0100098,2.7800293-2.0200195,4.1700439-3.039978
			c2.7799072-2.0200195,5.5499268-4.0499878,8.3099365-6.0900269c2.7600098-2.0299683,5.5100098-4.0599976,8.25-6.0999756
			c5.6900635-4.210022,11.3400879-8.4400024,16.9499512-12.6799927c2.4001465-1.8099976,4.8000488-3.6300049,7.1900635-5.4400024
			c0.2800293-0.2200317,0.5699463-0.4299927,0.8499756-0.6500244c2.4400635-1.8499756,4.8701172-3.7099609,7.3000488-5.5700073
			c2.0300293-1.5599976,4.0600586-3.1199951,6.0900879-4.6799927c3.25-2.5100098,6.5-5.0200195,9.7199707-7.5299683
			c1.1398926-0.8800049,2.289917-1.7700195,3.4199219-2.6600342c6.5300293-5.0899658,13-10.1799927,19.4000244-15.2699585
			v-4.6500244c-9.1900635-3.5900269-15.7000732-12.539978-15.7000732-23c0-13.6400146,11.0600586-24.7000122,24.7000732-24.7000122
			s24.7000732,11.0599976,24.7000732,24.7000122c0,0.1599731,0,0.3200073-0.0100098,0.4699707
			c11.6298828-9.5299683,23.0100098-19,34.1298828-28.3999634c2.0900879-1.7600098,4.1700439-3.5200195,6.2399902-5.2900391
			c0.4300537-0.3599854,0.8601074-0.7199707,1.2900391-1.0899658c1.8200684-1.5499878,3.6300049-3.0900269,5.4299316-4.6300049
			c0.8901367-0.7600098,1.7800293-1.5200195,2.6601563-2.2800293c1.5998535-1.3599854,3.1899414-2.7299805,4.7799072-4.0999756
			c2.3900146-2.0499878,4.7700195-4.0999756,7.1300049-6.1500244c2.3300781-2.0199585,4.6500244-4.0299683,6.9499512-6.039978
			c1.4001465-1.210022,2.7900391-2.4199829,4.1700439-3.6400146c2.5799561-2.25,5.1500244-4.5,7.7000732-6.75
			c2.5499268-2.2399902,5.0899658-4.4799805,7.6098633-6.7199707c0.670166-0.5900269,1.3400879-1.1799927,2-1.7700195
			c5.6401367-5,11.1900635-9.9699707,16.6501465-14.8900146c1.6098633-1.4400024,3.2099609-2.8800049,4.7999268-4.3299561
			c3.1800537-2.8800049,6.3399658-5.7399902,9.460083-8.5900269c3.1298828-2.8499756,6.2199707-5.6799927,9.2799072-8.5
			c1.5799561-1.4500122,3.1500244-2.8999634,4.710083-4.3399658c0.119873-0.1100464,0.2299805-0.2200317,0.3498535-0.3200073
			c2.0300293-1.8699951,4.0400391-3.7399902,6.0400391-5.6000366c2.1500244-1.9899902,4.2800293-3.9799805,6.3901367-5.9400024
			c1.9799805-1.8499756,3.9499512-3.6900024,5.8999023-5.5299683c1.5200195-1.4299927,3.0200195-2.8400269,4.5200195-4.25
			c1.4899902-1.4100342,2.9799805-2.8099976,4.4499512-4.210022c1.9699707-1.8599854,3.9300537-3.7099609,5.8601074-5.5599976
			c1.9499512-1.8499756,3.8898926-3.7000122,5.8099365-5.539978c1.8900146-1.8099976,3.7700195-3.6099854,5.6300049-5.3900146
			c3.75-3.6099854,7.4299316-7.1599731,11.0400391-10.6799927c1.8099365-1.75,3.5999756-3.4899902,5.3798828-5.2299805
			c4.4400635-4.3300171,8.7700195-8.5800171,13-12.7600098
			C1575.8900146,452.0199585,1523.0600586,432.5799561,1465.7099609,432.5799561z M1092.6400146,998.3399658v93.0799561
			c7.0799561-2.0998535,14.1300049-4.2600098,21.1600342-6.4699707v-95.8799438
			C1106.7700195,992.2199707,1099.7199707,995.3099976,1092.6400146,998.3399658z M1092.6400146,998.3399658v93.0799561
			c7.0799561-2.0998535,14.1300049-4.2600098,21.1600342-6.4699707v-95.8799438
			C1106.7700195,992.2199707,1099.7199707,995.3099976,1092.6400146,998.3399658z M1092.6400146,998.3399658v93.0799561
			c7.0799561-2.0998535,14.1300049-4.2600098,21.1600342-6.4699707v-95.8799438
			C1106.7700195,992.2199707,1099.7199707,995.3099976,1092.6400146,998.3399658z M1092.6400146,998.3399658v93.0799561
			c7.0799561-2.0998535,14.1300049-4.2600098,21.1600342-6.4699707v-95.8799438
			C1106.7700195,992.2199707,1099.7199707,995.3099976,1092.6400146,998.3399658z M1092.6400146,998.3399658v93.0799561
			c7.0799561-2.0998535,14.1300049-4.2600098,21.1600342-6.4699707v-95.8799438
			C1106.7700195,992.2199707,1099.7199707,995.3099976,1092.6400146,998.3399658z M1092.6400146,998.3399658v93.0799561
			c7.0799561-2.0998535,14.1300049-4.2600098,21.1600342-6.4699707v-95.8799438
			C1106.7700195,992.2199707,1099.7199707,995.3099976,1092.6400146,998.3399658z M1092.6400146,998.3399658v93.0799561
			c7.0799561-2.0998535,14.1300049-4.2600098,21.1600342-6.4699707v-95.8799438
			C1106.7700195,992.2199707,1099.7199707,995.3099976,1092.6400146,998.3399658z M1092.6400146,998.3399658v93.0799561
			c7.0799561-2.0998535,14.1300049-4.2600098,21.1600342-6.4699707v-95.8799438
			C1106.7700195,992.2199707,1099.7199707,995.3099976,1092.6400146,998.3399658z M1092.6400146,998.3399658v93.0799561
			c7.0799561-2.0998535,14.1300049-4.2600098,21.1600342-6.4699707v-95.8799438
			C1106.7700195,992.2199707,1099.7199707,995.3099976,1092.6400146,998.3399658z M1092.6400146,998.3399658v93.0799561
			c7.0799561-2.0998535,14.1300049-4.2600098,21.1600342-6.4699707v-95.8799438
			C1106.7700195,992.2199707,1099.7199707,995.3099976,1092.6400146,998.3399658z M1092.6400146,998.3399658v93.0799561
			c7.0799561-2.0998535,14.1300049-4.2600098,21.1600342-6.4699707v-95.8799438
			C1106.7700195,992.2199707,1099.7199707,995.3099976,1092.6400146,998.3399658z M1092.6400146,998.3399658v93.0799561
			c7.0799561-2.0998535,14.1300049-4.2600098,21.1600342-6.4699707v-95.8799438
			C1106.7700195,992.2199707,1099.7199707,995.3099976,1092.6400146,998.3399658z M1092.6400146,998.3399658v93.0799561
			c7.0799561-2.0998535,14.1300049-4.2600098,21.1600342-6.4699707v-95.8799438
			C1106.7700195,992.2199707,1099.7199707,995.3099976,1092.6400146,998.3399658z M1092.6400146,998.3399658v93.0799561
			c7.0799561-2.0998535,14.1300049-4.2600098,21.1600342-6.4699707v-95.8799438
			C1106.7700195,992.2199707,1099.7199707,995.3099976,1092.6400146,998.3399658z M1092.6400146,998.3399658v93.0799561
			c7.0799561-2.0998535,14.1300049-4.2600098,21.1600342-6.4699707v-95.8799438
			C1106.7700195,992.2199707,1099.7199707,995.3099976,1092.6400146,998.3399658z M1092.6400146,998.3399658v93.0799561
			c7.0799561-2.0998535,14.1300049-4.2600098,21.1600342-6.4699707v-95.8799438
			C1106.7700195,992.2199707,1099.7199707,995.3099976,1092.6400146,998.3399658z"/>
	</g>
	<g class="st0">
		<polygon class="st1" points="848.4000244,1349.8499756 848.4000244,1349.8699951 848.1900024,1349.8699951 		"/>
	</g>
	<polygon class="st3" points="738.1181641,1349.8743896 737.934021,1350.0847168 737.7235107,1349.8743896 	"/>
	<polygon class="st4" points="598.8499756,1349.8699951 598.6699829,1350.0799561 598.4500122,1349.8699951 	"/>
	<polygon class="st4" points="848.4000244,1349.8499756 848.4000244,1349.8699951 848.1900024,1349.8699951 	"/>
	<polygon class="st3" points="947.178772,1349.8743896 946.1529541,1350.9003906 945.1269531,1349.8743896 	"/>
	<polygon class="st3" points="738.1181641,1349.8743896 737.934021,1350.0847168 737.7235107,1349.8743896 	"/>
	<polygon class="st4" points="598.8499756,1349.8699951 598.6699829,1350.0799561 598.4500122,1349.8699951 	"/>
	<polygon class="st4" points="848.4000244,1349.8499756 848.4000244,1349.8699951 848.1900024,1349.8699951 	"/>
	<polygon class="st3" points="947.178772,1349.8743896 946.1529541,1350.9003906 945.1269531,1349.8743896 	"/>
	<path class="st3" d="M254.466217,1452.1030273c0.0263367-0.0526123,0.0526733-0.0788574,0.1316681-0.1315918v0.0263672
		C254.5188904,1452.0241699,254.4925537,1452.0767822,254.466217,1452.1030273z"/>
	<polygon class="st3" points="738.1181641,1349.8743896 737.934021,1350.0847168 737.7235107,1349.8743896 	"/>
	<polygon class="st4" points="598.8499756,1349.8699951 598.6699829,1350.0799561 598.4500122,1349.8699951 	"/>
	<polygon class="st4" points="848.4000244,1349.8499756 848.4000244,1349.8699951 848.1900024,1349.8699951 	"/>
	<polygon class="st3" points="947.178772,1349.8743896 946.1529541,1350.9003906 945.1269531,1349.8743896 	"/>
	<path class="st3" d="M254.466217,1452.1030273c0.0263367-0.0526123,0.0526733-0.0788574,0.1316681-0.1315918v0.0263672
		C254.5188904,1452.0241699,254.4925537,1452.0767822,254.466217,1452.1030273z"/>
	<polygon class="st3" points="738.1181641,1349.8743896 737.934021,1350.0847168 737.7235107,1349.8743896 	"/>
	<polygon class="st4" points="598.8499756,1349.8699951 598.6699829,1350.0799561 598.4500122,1349.8699951 	"/>
	<path class="st4" d="M1113.8000488,989.0700073v95.8799438c-7.0300293,2.2099609-14.0800781,4.3701172-21.1600342,6.4699707
		v-93.0799561C1099.7199707,995.3099976,1106.7700195,992.2199707,1113.8000488,989.0700073z"/>
	<path class="st5" d="M1063.3000488,1261.3900146l-36.75,36.7399902v51.7399902h-43.8700562v-85.6600342
		c10.6400146-0.3999023,21.4199829-0.7199707,32.289978-0.9599609
		C1031.0900879,1262.8699951,1047.2099609,1262.2600098,1063.3000488,1261.3900146z"/>
	<path class="st5" d="M1258.7600098,1239.8900146v29.3199463l-80.6500244,80.6600342h-133.5599365v-44.2800293l45.869873-45.8699951
		C1147.1099854,1255.75,1203.4399414,1248.9099121,1258.7600098,1239.8900146z"/>
	<path class="st5" d="M1431.5600586,1204.6400146v126.039917c-11.4400635,4.8701172-23.3400879,8.880127-35.6101074,11.9300537
		c-2.6098633,0.6600342-5.2399902,1.289917-7.8898926,1.8199463c-16.5,3.5800781-33.6201172,5.4400635-51.2000732,5.4400635
		h-127.6500244l71.5500488-71.5400391v-42.1199951c3.2199707-0.5500488,6.4299316-1.1099854,9.6300049-1.6899414
		c1.4699707-0.2600098,2.9300537-0.5300293,4.4000244-0.7900391c1.1398926-0.1999512,2.2800293-0.4000244,3.4099121-0.6199951
		c0.3701172-0.0599365,0.7399902-0.1300049,1.1101074-0.2000732c1.1899414-0.2099609,2.3798828-0.4299316,3.5599365-0.6599121
		c0.4000244-0.0700684,0.7999268-0.1400146,1.2000732-0.2199707c2.1999512-0.4000244,4.3898926-0.8000488,6.5699463-1.2199707
		c0.0198975,0,0.039917-0.0100098,0.0599365-0.0100098c2.6900635-0.5,5.3701172-1.0100098,8.0500488-1.5200195
		c1.0100098-0.1900635,2.0100098-0.3900146,3.0100098-0.5900879c2.0800781-0.3999023,4.1499023-0.7999268,6.2099609-1.2099609
		c0.5800781-0.1099854,1.1500244-0.2299805,1.7299805-0.3399658c2.4899902-0.4801025,4.9799805-0.9801025,7.4599609-1.4801025
		c3.3200684-0.6599121,6.6401367-1.3398438,9.9500732-2.0198975s6.6099854-1.3699951,9.9100342-2.0600586
		c6.3599854-1.3399658,12.6999512-2.6999512,19.0100098-4.0799561c3.1599121-0.6899414,6.3199463-1.3900146,9.4599609-2.0900879
		c1.5700684-0.3498535,3.1400146-0.6999512,4.7099609-1.0599365c1.5800781-0.3499756,3.1401367-0.7099609,4.7099609-1.0599365
		c2.8100586-0.6401367,5.6101074-1.2800293,8.4101563-1.9400635c1.6298828-0.3699951,3.2600098-0.75,4.8898926-1.1300049
		c2.4799805-0.5799561,4.9599609-1.1599121,7.4400635-1.75c0.039917-0.0100098,0.0699463-0.0200195,0.1099854-0.0300293
		c3.2299805-0.7600098,6.4499512-1.5300293,9.6599121-2.3099365
		C1427.4699707,1205.6400146,1429.5200195,1205.1400146,1431.5600586,1204.6400146z"/>
	<path class="st5" d="M1542.9399414,1235.1799316c-2.7700195,4.4699707-5.6699219,8.8300781-8.7199707,13.1000977
		c-2.5300293,3.5499268-5.1899414,7.0499268-7.8999023,10.4399414
		c-16.0200195,20.0200195-35.1401367,37.4599609-56.6601563,51.5600586c-2.579834,1.7099609-5.2099609,3.369873-7.8898926,4.9699707
		c-2.6999512,1.6199951-5.4399414,3.1999512-8.2099609,4.7199707v-120.7900391
		c2.2199707-0.5599365,4.4399414-1.119873,6.6499023-1.6899414c1.9499512-0.4899902,3.9000244-0.9899902,5.8400879-1.5
		c1.9499512-0.5,3.8898926-1.0100098,5.8299561-1.5100098c3.2399902-0.8399658,6.4699707-1.6899414,9.6800537-2.5400391
		c2.0499268-0.5400391,4.1098633-1.0899658,6.1499023-1.6398926c6.2900391-1.6800537,12.5500488-3.3701172,18.7800293-5.0800781
		v13.5100098L1542.9399414,1235.1799316z"/>
	<path class="st5" d="M1572.0999756,1166.25c-4.25,17.1199951-10.3199463,33.5200195-18.0098877,48.9699707l-25.6000977-25.5999756
		v-10.5599365C1543.2399902,1174.8499756,1557.7900391,1170.5700684,1572.0999756,1166.25z"/>
	<path class="st3" d="M254.466217,1452.1030273c0.0263367-0.0526123,0.0526733-0.0788574,0.1316681-0.1315918v0.0263672
		C254.5188904,1452.0241699,254.4925537,1452.0767822,254.466217,1452.1030273z"/>
	<path class="st6" d="M409.460022,1314.2600098c-26.9299927,19.6999512-50.1100464,38.1899414-69.710022,54.8399658
		c-4.3400269-0.8099365-8.6799927-1.7299805-12.9699707-2.7299805c4.1999512-4.3599854,8.5799561-8.8499756,13.1799927-13.460083
		l1.9799805-1.9799805c0.8499756-0.8499756,1.710022-1.7099609,2.5700073-2.5699463
		c1.3999634-1.3900146,2.7999878-2.7800293,4.2299805-4.1800537c1-0.9899902,2.0200195-1.9799805,3.0400391-2.9699707
		c0.6899414-0.6799316,1.3799438-1.3499756,2.0799561-2.0300293c0.7000122-0.6799316,1.4100342-1.369873,2.1099854-2.0499268
		c1.4200439-1.3699951,2.8500366-2.75,4.3000488-4.1300049c2.1099854-2.0200195,4.25-4.0600586,6.4199829-6.1099854
		c2.8699951-2.710083,5.7999878-5.4500732,8.789978-8.210083c0.5400391-0.5100098,1.0800171-1.0100098,1.6300049-1.5100098
		c0.5900269-0.5499268,1.1900024-1.0998535,1.7900391-1.6499023c1.6199951-1.4799805,3.25-2.9799805,4.8999634-4.4799805
		c3.8400269-3.5,7.7800293-7.0400391,11.8099976-10.630127L409.460022,1314.2600098z"/>
	<path class="st7" d="M423.5800171,1328.3900146c-25.75,15.2598877-48.4400024,29.9200439-68.1500244,43.4200439
		c-5.2600098-0.7800293-10.4899902-1.6800537-15.6799927-2.710083
		c19.5999756-16.6500244,42.7800293-35.1400146,69.710022-54.8399658L423.5800171,1328.3900146z"/>
	<path class="st8" d="M438.2600098,1343.0700684c-22.9799805,10.7799072-43.7700195,21.3199463-62.3900146,31.3199463
		c-6.8599854-0.6800537-13.6799927-1.5500488-20.4400024-2.5799561c19.710022-13.5,42.4000244-28.1601563,68.1500244-43.4200439
		L438.2600098,1343.0700684z"/>
	<path class="st9" d="M453.8800049,1358.6799316c-16.7000122,5.8901367-32.3699951,11.7900391-46.9700317,17.5800781
		c-4.9699707-0.1000977-9.9099731-0.3200684-14.8299561-0.6000977c-2.6300049-0.1398926-5.2600098-0.3199463-7.8900146-0.5299072
		c-2.789978-0.210083-5.5599976-0.4700928-8.3200073-0.7399902c18.6199951-10,39.4100342-20.5400391,62.3900146-31.3199463
		L453.8800049,1358.6799316z"/>
	<path class="st5" d="M461.8200073,1366.6300049v7.0799561c-0.1400146,0.0200195-0.2800293,0.0400391-0.4199829,0.0500488
		c-15,1.7099609-30.2600098,2.6099854-45.7300415,2.6099854c-2.9199829,0-5.8399658-0.0300293-8.7600098-0.1099854
		c14.6000366-5.7900391,30.2700195-11.6899414,46.9700317-17.5800781L461.8200073,1366.6300049z"/>
	<path class="st6" d="M531.9199829,1193.1599121v40.7000732c-40.6799927,23.9799805-76.5,47.5200195-107.6900024,69.7299805
		l-15.0599976-15.0599365c4.4400024-3.8400879,8.9800415-7.7199707,13.6300049-11.630127
		c1.1600342-0.9799805,2.3300171-1.9599609,3.5-2.9399414c3.5200195-2.9499512,7.1099854-5.9299316,10.7600098-8.9199219
		c1.2600098-1.0400391,2.5300293-2.0800781,3.8099976-3.1101074c2-1.6398926,4.0200195-3.2800293,6.0599976-4.9199219
		c1.210022-0.9799805,2.4299927-1.9599609,3.6600342-2.9399414c1.9400024-1.5600586,3.8999634-3.130127,5.8799438-4.6900635
		c0.5200195-0.4100342,1.0300293-0.8199463,1.5500488-1.2301025c1.0799561-0.8598633,2.1599731-1.7099609,3.25-2.5599365
		c0.7399902-0.5899658,1.4799805-1.1700439,2.2299805-1.75c0.8900146-0.6999512,1.789978-1.4000244,2.6799927-2.0999756
		c1.6500244-1.2800293,3.3099976-2.5700684,4.9799805-3.8599854c3.8600464-2.9899902,7.7700195-5.9899902,11.7400513-9
		c2.7599487-2.0899658,5.5499878-4.1900635,8.3599854-6.2900391c1.4599609-1.0899658,2.9299927-2.1900635,4.4099731-3.289917
		c2.960022-2.1900635,5.9400024-4.3901367,8.960022-6.6000977c0.4099731-0.3000488,0.8200073-0.5999756,1.2399902-0.9099121
		c2.6099854-1.9000244,5.2399902-3.8100586,7.9000244-5.7299805
		C519.7000122,1201.7800293,525.75,1197.4799805,531.9199829,1193.1599121z"/>
	<path class="st7" d="M552.8099976,1260.2199707c-42.460022,19.8599854-80.1300049,39.7399902-113.1799927,58.7700195
		l-15.4000244-15.4000244c31.1900024-22.2099609,67.0100098-45.75,107.6900024-69.7299805v5.4799805L552.8099976,1260.2199707z"/>
	<path class="st8" d="M578.5700073,1285.9799805c-45.960022,16.1199951-86.9000244,32.7900391-122.8900146,49.0500488
		l-16.0499878-16.0400391c33.0499878-19.0300293,70.7199707-38.9100342,113.1799927-58.7700195L578.5700073,1285.9799805z"/>
	<path class="st9" d="M578.6599731,1286.0700684v34.7199707c-38.7699585,9.9899902-74.0599976,20.6398926-105.8599854,31.3598633
		l-17.1199951-17.119873c35.9899902-16.2600098,76.9299927-32.9300537,122.8900146-49.0500488L578.6599731,1286.0700684z"/>
	<path class="st5" d="M578.6599731,1320.7900391v29.0799561h-20.0599976
		c-25.1399536,9.7099609-51.4899902,16.9200439-78.7799683,21.3099365v-12.0100098l-7.0200195-7.0200195
		C504.5999756,1341.4299316,539.8900146,1330.7800293,578.6599731,1320.7900391z"/>
	<path class="st6" d="M832,1029.6999512v62.9400635c-1.710022,0.6300049-3.4199829,1.2598877-5.1199951,1.9000244
		c-5.1099854,1.8999023-10.1799927,3.8099365-15.210022,5.7399902c-1.6799927,0.6298828-3.3499756,1.2700195-5.0199585,1.9199219
		c-3.3400269,1.2800293-6.6600342,2.5700684-9.9700317,3.8601074c-0.4699707,0.1799316-0.9299927,0.3598633-1.3900146,0.539917
		c-2.8399658,1.1199951-5.6599731,2.2299805-8.4699707,3.3399658c-9.9500122,3.9400635-19.7399902,7.9100342-29.3699951,11.9200439
		c-1.460022,0.5999756-2.9199829,1.210083-4.3699951,1.8199463c-1.5800171,0.6500244-3.1500244,1.3100586-4.7200317,1.9799805
		c-1.5700073,0.6601563-3.1400146,1.3200684-4.7000122,1.9801025c-4.2199707,1.7799072-8.4099731,3.5799561-12.5599976,5.3699951
		c-0.4599609,0.1999512-0.9199829,0.3999023-1.3800049,0.5999756c-1.5299683,0.6700439-3.0599976,1.3299561-4.5899658,2
		c-4.5900269,1.9899902-9.1300049,4-13.6400146,6.0100098c-1.5100098,0.6700439-3.0100098,1.3399658-4.5,2.0100098
		c-2.8900146,1.289917-5.7600098,2.5799561-8.6099854,3.8800049c-0.1099854,0.0500488-0.210022,0.0999756-0.3200073,0.1499023
		c-2.9500122,1.3400879-5.8800049,2.6800537-8.789978,4.0200195c-3.0200195,1.4000244-6.0300293,2.7900391-9.0100098,4.1800537
		c-4.2600098,1.9899902-8.4799805,3.9799805-12.6600342,5.9799805
		c-12.7999878,6.0999756-25.2699585,12.2200928-37.4199829,18.3499756c-1.3499756,0.6800537-2.7000122,1.3601074-4.039978,2.0500488
		c-15.8900146,8.0700684-31.210022,16.1500244-45.9800415,24.2199707c-1.2099609,0.6600342-2.4199829,1.3200684-3.6199951,1.9799805
		c-1.4899902,0.8100586-2.9699707,1.630127-4.4400024,2.4400635c-2.4199829,1.3399658-4.8199463,2.6800537-7.2099609,4.0100098
		c-3.6900024,2.0699463-7.3500366,4.1300049-10.9700317,6.1899414v-43.0899658
		c9.3400269-6.3300781,18.9299927-12.6899414,28.7700195-19.0700684c1.2299805-0.7999268,2.4699707-1.5998535,3.710022-2.3999023
		c3.7099609-2.4000244,7.4599609-4.7900391,11.2399902-7.1900635c1.2600098-0.7999268,2.5299683-1.5999756,3.7999878-2.4000244
		c1.0900269-0.6899414,2.1799927-1.3798828,3.2799683-2.0599365c0.75-0.4799805,1.5-0.9500732,2.2600098-1.4200439
		c3.8400269-2.4099121,7.7300415-4.8199463,11.6500244-7.2299805c4.2000122-2.5899658,8.4400024-5.1799316,12.7299805-7.7600098
		c2.7600098-1.6699219,5.5300293-3.3399658,8.3300171-5.0100098c2.9500122-1.7600098,5.9199829-3.5200195,8.9099731-5.2800293
		c1.4400024-0.8498535,2.8900146-1.6999512,4.3400269-2.5499268c1.3699951-0.8099365,2.75-1.6099854,4.1300049-2.4100342
		c1.3800049-0.8100586,2.7600098-1.6099854,4.1499634-2.4199219c2.7800293-1.6000977,5.5700073-3.210083,8.3800049-4.8200684
		c13.5700073-7.7600098,27.5200195-15.5200195,41.8600464-23.25c1.9899902-1.0799561,3.9899902-2.1499023,5.9899902-3.2199707
		c1.4899902-0.8000488,2.9899902-1.6000977,4.4899902-2.4000244c1.1300049-0.5999756,2.2600098-1.2000732,3.4000244-1.7999268
		c7.5799561-4.0200195,15.2699585-8.0200195,23.0699463-12.0200195c2.2900391-1.1700439,4.5900269-2.3500977,6.9000244-3.5200195
		c2.539978-1.3000488,5.0900269-2.5900879,7.6599731-3.8699951c2.5600586-1.2900391,5.1300049-2.5699463,7.710022-3.8599854
		c2.5900269-1.2900391,5.1900024-2.5800781,7.8099976-3.8601074c2.6099854-1.289917,5.2299805-2.5699463,7.8599854-3.8498535
		c1.6700439-0.8100586,3.3400269-1.6201172,5.0200195-2.4400635c11.7299805-5.6800537,23.6900024-11.3199463,35.8699951-16.9400635
		L832,1029.6999512z"/>
	<path class="st7" d="M832,1092.6400146v64.5499268c-99.5300293,28.130127-185.25,60.4899902-257.8800049,93.2299805
		l-20.2000122-20.1899414v-9.1500244c3.6199951-2.0599365,7.2800293-4.1199951,10.9700317-6.1899414
		c2.3900146-1.3299561,4.789978-2.6700439,7.2099609-4.0100098c1.4700317-0.8099365,2.9500122-1.6300049,4.4400024-2.4400635
		c1.2000122-0.6599121,2.4100342-1.3199463,3.6199951-1.9799805c14.7700195-8.0699463,30.0900269-16.1499023,45.9800415-24.2199707
		c1.3399658-0.6899414,2.6900024-1.3699951,4.039978-2.0500488c12.1500244-6.1298828,24.6199951-12.25,37.4199829-18.3499756
		c4.1800537-2,8.4000244-3.9899902,12.6600342-5.9799805c2.9799805-1.3900146,5.9899902-2.7800293,9.0100098-4.1800537
		c2.9099731-1.3399658,5.8399658-2.6799316,8.789978-4.0200195c0.1099854-0.0499268,0.210022-0.0998535,0.3200073-0.1499023
		c2.8499756-1.3000488,5.7199707-2.5900879,8.6099854-3.8800049c1.4899902-0.6700439,2.9899902-1.3399658,4.5-2.0100098
		c4.5100098-2.0100098,9.0499878-4.0200195,13.6400146-6.0100098c1.5299683-0.6700439,3.0599976-1.3299561,4.5899658-2
		c0.460022-0.2000732,0.9200439-0.4000244,1.3800049-0.5999756c4.1500244-1.7900391,8.3400269-3.5900879,12.5599976-5.3699951
		c1.5599976-0.6600342,3.1300049-1.3199463,4.7000122-1.9801025c1.5700073-0.6699219,3.1400146-1.3299561,4.7200317-1.9799805
		c1.4500122-0.6098633,2.9099731-1.2199707,4.3699951-1.8199463c9.6300049-4.0100098,19.4199829-7.9799805,29.3699951-11.9200439
		c2.8099976-1.1099854,5.6300049-2.2199707,8.4699707-3.3399658c0.460022-0.1800537,0.9200439-0.3599854,1.3900146-0.539917
		c3.3099976-1.2900391,6.6300049-2.5800781,9.9700317-3.8601074c1.6699829-0.6499023,3.3399658-1.2900391,5.0199585-1.9199219
		c5.0300293-1.9300537,10.1000366-3.8400879,15.210022-5.7399902
		C828.5800171,1093.8999023,830.289978,1093.2700195,832,1092.6400146z"/>
	<path class="st8" d="M832,1157.1899414v60.5100098c-87.2800293,17.1201172-164.3200073,38.2199707-231.3400269,60.6800537
		v-1.4200439l-26.539978-26.5400391C646.75,1217.6799316,732.4699707,1185.3200684,832,1157.1899414z"/>
	<path class="st9" d="M832,1217.6999512v57.4599609c-86.9000244,9.5300293-164.039978,23.7600098-231.3400269,40.130127v-36.9100342
		C667.6799927,1255.9199219,744.7199707,1234.8200684,832,1217.6999512z"/>
	<path class="st5" d="M832,1275.1599121v74.710083H600.6599731v-34.5799561
		C667.960022,1298.9199219,745.0999756,1284.6899414,832,1275.1599121z"/>
	<polygon class="st4" points="598.8499756,1349.8699951 598.6699829,1350.0799561 598.4500122,1349.8699951 	"/>
	<path class="st4" d="M1092.6400146,998.3399658v93.0799561c7.0799561-2.0998535,14.1300049-4.2600098,21.1600342-6.4699707
		v-95.8799438C1106.7700195,992.2199707,1099.7199707,995.3099976,1092.6400146,998.3399658z"/>
	<path class="st5" d="M960.6799927,1265.1300049v84.7399902H850v-76.6099854
		c28.9199829-2.9000244,58.9099731-5.3000488,89.9400024-7.0400391
		C946.7999878,1265.8100586,953.710022,1265.4599609,960.6799927,1265.1300049z"/>
	<path class="st9" d="M960.6799927,1196.6199951v68.5100098c-6.9699707,0.3299561-13.8800049,0.6800537-20.7399902,1.0899658
		c-31.0300293,1.7399902-61.0200195,4.1400146-89.9400024,7.0400391V1214.25
		C885.2600098,1207.6499023,922.1599731,1201.7199707,960.6799927,1196.6199951z"/>
	<path class="st9" d="M1074.6400146,1180.8399658v69.210083l-11.3399658,11.3399658
		c-16.0900879,0.8699951-32.2099609,1.4799805-48.3300781,1.8599854
		c-10.8699951,0.2399902-21.6499634,0.5600586-32.289978,0.9599609v-70.3800049
		c3.6900024-0.4699707,7.3900146-0.9200439,11.1099854-1.3499756
		C1020.8300171,1189.3100586,1047.8000488,1185.3999023,1074.6400146,1180.8399658z"/>
	<path class="st9" d="M1431.5600586,1086.5v118.1400146c-2.0400391,0.5-4.0900879,1-6.1401367,1.4899902
		c-3.2099609,0.7799072-6.4299316,1.5499268-9.6599121,2.3099365c-0.0400391,0.0100098-0.0700684,0.0200195-0.1099854,0.0300293
		c-2.4801025,0.5900879-4.960083,1.1700439-7.4400635,1.75c-1.6298828,0.3800049-3.2600098,0.7600098-4.8898926,1.1300049
		c-2.8000488,0.6600342-5.6000977,1.2999268-8.4101563,1.9400635c-1.5698242,0.3499756-3.1298828,0.7099609-4.7099609,1.0599365
		c-1.5699463,0.3599854-3.1398926,0.710083-4.7099609,1.0599365c-3.1499023,0.7000732-6.3000488,1.4001465-9.4599609,2.0900879
		c-6.3100586,1.3800049-12.6500244,2.7399902-19.0100098,4.0799561c-3.3000488,0.6900635-6.6000977,1.3800049-9.9100342,2.0600586
		s-6.6300049,1.3599854-9.9500732,2.0198975c-2.4799805,0.5-4.9699707,1-7.4599609,1.4801025
		c-0.5799561,0.1099854-1.1499023,0.2299805-1.7299805,0.3399658c-2.0600586,0.4100342-4.1298828,0.8100586-6.2099609,1.2099609
		c-1,0.2000732-2,0.4000244-3.0100098,0.5900879c-2.6799316,0.5100098-5.3599854,1.0200195-8.0500488,1.5200195
		c-0.0200195,0-0.0400391,0.0100098-0.0599365,0.0100098c-2.1800537,0.4199219-4.3699951,0.8199463-6.5699463,1.2199707
		c-0.4001465,0.0799561-0.8000488,0.1499023-1.2000732,0.2199707c-1.1800537,0.2299805-2.3699951,0.4499512-3.5599365,0.6599121
		c-0.3701172,0.0700684-0.7399902,0.1401367-1.1101074,0.2000732c-1.1398926,0.210083-2.2700195,0.4200439-3.4099121,0.6199951
		c-1.4699707,0.2600098-2.9300537,0.5300293-4.4000244,0.7900391c-3.2000732,0.5699463-6.4100342,1.1298828-9.6300049,1.6899414
		v-40.2700195c10.3499756-4.3099365,17.6199951-14.5200195,17.6199951-26.4299316
		c0-15.8000488-12.8099365-28.6199951-28.6199951-28.6199951s-28.6199951,12.8199463-28.6199951,28.6199951
		c0,11.9099121,7.2698975,22.1199951,17.6199951,26.4299316v43.9500732
		c-55.3200684,9.0198975-111.6500244,15.8599854-168.3400879,19.8299561l2.2200928-2.2199707v-79.8200684
		c117.2799072-21.1398926,231.5599365-54.3099365,336.9100342-92.1098633
		C1430.1999512,1085.9099121,1430.8699951,1086.2199707,1431.5600586,1086.5z"/>
	<path class="st9" d="M1506.4899902,1056.6099854v128.6099854c-6.2299805,1.7099609-12.4899902,3.4000244-18.7800293,5.0800781
		c-2.0400391,0.5499268-4.0999756,1.0998535-6.1499023,1.6398926c-3.210083,0.8500977-6.4400635,1.7000732-9.6800537,2.5400391
		c-1.9400635,0.5-3.8800049,1.0100098-5.8299561,1.5100098c-1.9400635,0.5100098-3.8901367,1.0100098-5.8400879,1.5
		c-2.2099609,0.5700684-4.4299316,1.1300049-6.6499023,1.6899414V1086.5
		c6.9599609-2.8900146,12.5300293-8.4599609,15.4199219-15.4200439c3.1600342-1.1899414,6.3200684-2.3900146,9.4699707-3.5899658
		c2.5900879-0.9899902,5.1700439-1.9799805,7.75-2.9699707c0.5500488-0.2099609,1.1000977-0.4300537,1.6500244-0.6400146
		c3.1300049-1.2000732,6.2401123-2.4100342,9.3499756-3.6300049
		C1500.3100586,1059.0400391,1503.4000244,1057.8299561,1506.4899902,1056.6099854z"/>
	<path class="st9" d="M1699.0600586,978.9699707c0,33.5700073-11.0800781,64.5300293-29.8400879,89.4499512
		c-2.3399658,3.130127-4.8100586,6.1501465-7.4099121,9.1000977c-1.7399902,1.9699707-3.5300293,3.8898926-5.3701172,5.7900391
		c-14.1799316,14.4699707-31.3099365,26.039917-50.3798828,33.7698975c-2.6600342,1.0799561-5.3400879,2.0799561-8.0500488,3
		c-6.2900391,2.1600342-12.7600098,3.8699951-19.3900146,5.1600342c-1.0200195,14.0200195-3.210083,27.75-6.5200195,41.0100098
		c-14.3099365,4.3200684-28.8599854,8.5999756-43.6099854,12.8100586v-119.4899902l19.8300781-19.8300781
		c54-22.2700195,104.5200195-45.0800171,150.5799561-67.1600342
		C1699,974.6900024,1699.0600586,976.8200073,1699.0600586,978.9699707z"/>
	<path class="st8" d="M960.6799927,1125.1599121v71.460083C922.1599731,1201.7199707,885.2600098,1207.6499023,850,1214.25
		v-62.0400391C885.2000122,1142.5899658,922.0900269,1133.5200195,960.6799927,1125.1599121z"/>
	<path class="st8" d="M1074.6400146,1096.6999512v84.1400146c-26.8399658,4.5599365-53.8099976,8.4700928-80.8500366,11.6400146
		c-3.7199707,0.4299316-7.4199829,0.8800049-11.1099854,1.3499756v-73.4799805
		c0.9299927-0.2099609,1.8599854-0.4200439,2.7800293-0.6300049c0.9199829-0.2099609,1.8499756-0.4199219,2.7799683-0.6400146
		c0.0300293,0,0.0700073-0.0098877,0.1000366-0.0198975c2.3299561-0.5400391,4.6599731-1.0800781,6.9899902-1.630127
		c2.7999878-0.6499023,5.5899658-1.3099365,8.3800049-1.9899902c0.3899536-0.0899658,0.7799683-0.1799316,1.1699829-0.2800293
		c2.1099854-0.5100098,4.2199707-1.0198975,6.3300171-1.539917c0.4299927-0.0999756,0.8599854-0.210083,1.2999878-0.3199463
		c0.0999756-0.0300293,0.2099609-0.0500488,0.3099976-0.0800781c2.6799927-0.6599121,5.3499756-1.3200684,8.0200195-2
		c2.6699829-0.6699219,5.3399048-1.3599854,8.0099487-2.0400391
		C1044.1799316,1105.2399902,1059.4499512,1101.0700684,1074.6400146,1096.6999512z"/>
	<path class="st8" d="M1113.8000488,1084.9499512v32.3800049l-21.1600342,21.1600342v-47.0700684
		C1099.7199707,1089.3200684,1106.7700195,1087.1599121,1113.8000488,1084.9499512z"/>
	<path class="st8" d="M1506.4899902,1054.0999756v2.5100098c-3.0899658,1.2199707-6.1799316,2.4300537-9.2900391,3.6400146
		c-3.1098633,1.2199707-6.2199707,2.4299316-9.3499756,3.6300049c-0.5499268,0.2099609-1.0999756,0.4300537-1.6500244,0.6400146
		c-2.5799561,0.9899902-5.1599121,1.9799805-7.75,2.9699707c-3.1499023,1.1999512-6.3099365,2.4000244-9.4699707,3.5899658
		c1.4200439-3.3900146,2.1999512-7.1099854,2.1999512-11.0098877c0-15.8000488-12.8099365-28.6201172-28.619873-28.6201172
		c-15.8100586,0-28.6201172,12.8200684-28.6201172,28.6201172c0,11.119873,6.3400879,20.7698975,15.6101074,25.5
		c-105.3500977,37.7999268-219.630127,70.9699707-336.9100342,92.1098633v-13.7299805l39.1600342-39.1599121v-45.5500488
		c0.2700195-0.0900879,0.5400391-0.1699219,0.8099365-0.2700195c2.8599854-0.9199219,5.710083-1.8499756,8.5599365-2.7900391
		c2.6501465-0.869873,5.2900391-1.7399902,7.9300537-2.6298828c8.1099854-2.7000732,16.2000732-5.460083,24.25-8.2600098
		c1.4400635-0.5,2.8800049-1.0100098,4.3199463-1.5200195c7.3601074-2.5800781,14.6900635-5.1999512,22-7.8601074
		c2.1900635-0.789917,4.3701172-1.5898438,6.5500488-2.3999023c7.7299805-2.8400879,15.4200439-5.7199707,23.0800781-8.6400146
		c1.9299316-0.7299805,3.8499756-1.4700928,5.7600098-2.210083c2.5200195-0.9599609,5.0300293-1.9299316,7.539917-2.9099121
		c2.5500488-0.9799805,5.0899658-1.9799805,7.6300049-2.9799805c2.6600342-1.0300293,5.3100586-2.0800781,7.9499512-3.1400146
		c14.1101074-5.6099854,28.0900879-11.3300171,41.9400635-17.1700439c2.289917-0.9499512,4.5699463-1.9199829,6.8399658-2.8800049
		c8.1800537-3.4799805,16.3000488-6.9799805,24.3701172-10.5199585c2.6298828-1.1500244,5.25-2.2999878,7.8598633-3.460022
		c3.2800293-1.4400024,6.5400391-2.8999634,9.8000488-4.3499756c2.3500977-1.0599976,4.6999512-2.1199951,7.0500488-3.1799927
		c3.2700195-1.4700317,6.5300293-2.9400024,9.7700195-4.4299927c2.8498535-1.3000488,5.6899414-2.6100464,8.5200195-3.9100342
		c2.8398438-1.3099976,5.6599121-2.6199951,8.4799805-3.9299927c5.6398926-2.6300049,11.25-5.2700195,16.8299561-7.9099731
		c1.4000244-0.6700439,2.789917-1.3300171,4.1800537-1.9900513c1.3898926-0.6499634,2.7799072-1.3200073,4.1699219-1.9899902
		c2.7800293-1.3300171,5.5500488-2.6699829,8.3100586-4L1506.4899902,1054.0999756z"/>
	<path class="st8" d="M1596.8000488,868.3900146v91.7599487l-79.4000244,79.4000854l-83.9801025-83.9800415
		C1491.7800293,926.8800049,1546.6099854,897.2699585,1596.8000488,868.3900146z"/>
	<path class="st8" d="M1698.9000244,972.5799561c-46.0599365,22.0800171-96.5799561,44.8900146-150.5799561,67.1600342
		l70.4799805-70.4799805V855.6199951c6.1799316-3.6300049,12.2800293-7.2399902,18.3099365-10.8300171
		c2.0100098-1.2000122,4.0100098-2.3900146,6-3.5899658c1.460083-0.8700562,2.9200439-1.7400513,4.3699951-2.6200562
		c1.8200684-1.0899658,3.6300049-2.1799927,5.4299316-3.2699585c1.4101563-0.8500366,2.8200684-1.7000122,4.210083-2.5400391
		c0.3699951-0.2199707,0.7399902-0.4400024,1.0999756-0.6599731c2.8100586-1.7000122,5.6000977-3.4000244,8.3701172-5.0800171
		c-8.3901367,11.4899902-17.7301025,22.25-27.9101563,32.1400146
		C1673.6999512,885.1400146,1696.9499512,926.0999756,1698.9000244,972.5799561z"/>
	<path class="st7" d="M960.6799927,1061.8200684v63.3398438c-38.5899658,8.3601074-75.4799805,17.4300537-110.6799927,27.0500488
		v-66.1599121c11.4199829-4.1000977,23.0200195-8.1501465,34.8099976-12.1600342c2.75-0.9300537,5.5-1.8599854,8.2700195-2.7900391
		c1.8200073-0.6099854,3.6499634-1.2199707,5.4799805-1.8299561c1.8300171-0.6101074,3.6699829-1.2099609,5.5100098-1.8200684
		c0.5599976-0.1799316,1.1099854-0.3699951,1.6699829-0.5500488c3.1199951-1.0299072,6.2700195-2.0599365,9.4199829-3.0699463
		c1.9900513-0.6500244,3.9800415-1.289917,5.9800415-1.9200439c1.7399902-0.5699463,3.4799805-1.119873,5.2199707-1.6699219
		c1.8800049-0.5999756,3.7600098-1.1999512,5.6400146-1.7900391c2.4899902-0.7800293,4.960022-1.5699463,7.4400024-2.3699951
		h0.0100098c3.2099609-1.0299072,6.4099731-2.0699463,9.6199951-3.1300049
		C952.0800171,1056.8299561,956.0800171,1059.9099121,960.6799927,1061.8200684z"/>
	<path class="st7" d="M1074.6400146,1005.9899902v90.7099609c-15.1900635,4.3701172-30.460083,8.5400391-45.7900391,12.4799805
		c-2.6700439,0.6800537-5.3399658,1.3701172-8.0099487,2.0400391c-2.6700439,0.6799316-5.3400269,1.3400879-8.0200195,2
		c-0.1000366,0.0300293-0.210022,0.0500488-0.3099976,0.0800781c-0.4400024,0.1098633-0.8699951,0.2199707-1.2999878,0.3199463
		c-2.1100464,0.5200195-4.2200317,1.0299072-6.3300171,1.539917c-0.3900146,0.1000977-0.7800293,0.1900635-1.1699829,0.2800293
		c-2.7900391,0.6700439-5.5800171,1.3400879-8.3800049,1.9899902c-2.3300171,0.5500488-4.6600342,1.0900879-6.9899902,1.630127
		c-0.0300293,0.0100098-0.0700073,0.0198975-0.1000366,0.0198975c-0.9299927,0.2200928-1.8599854,0.4300537-2.7799683,0.6400146
		c-0.9200439,0.2099609-1.8500366,0.4200439-2.7800293,0.6300049v-58.5299072
		c10.3500366-4.3000488,17.6199951-14.5100098,17.6199951-26.420166c0-0.079834,0-0.1699219-0.0100098-0.25
		c0.1500244-0.0599365,0.3099976-0.1098633,0.460022-0.1699219c2.9799805-1.0800781,5.9500122-2.1799316,8.9199829-3.2900391
		c3.1300049-1.1499023,6.2399902-2.3199463,9.3600464-3.5100098c6.2299805-2.3598633,12.4499512-4.749939,18.6398926-7.1899414
		c1.170166-0.4500122,2.3400879-0.9100342,3.5-1.3800049c1.170166-0.460022,2.3300781-0.9299927,3.5-1.3900146
		c0.9899902-0.3800049,1.9700928-0.7799683,2.9500732-1.1699829c2.5899658-1.0300293,5.1800537-2.0700073,7.7600098-3.1199951
		c0.3499756-0.1400146,0.7000732-0.289978,1.0599365-0.4299927c0.2399902-0.1000366,0.4699707-0.1900024,0.710083-0.2900391
		c0.0499268-0.0199585,0.0899658-0.039978,0.1400146-0.0599976c2.0300293-0.8200073,4.0500488-1.6399536,6.0599365-2.4799805
		c1.2401123-0.5,2.4700928-1.0100098,3.7000732-1.5200195c0.0200195-0.0099487,0.0400391-0.0199585,0.0599365-0.0199585
		l0.9300537-0.3900146c2.0500488-0.8400269,4.0999756-1.6900024,6.1398926-2.5599976
		C1074.3300781,1006.1199951,1074.4899902,1006.0499878,1074.6400146,1005.9899902z"/>
	<polygon class="st6" points="844.9199829,1017.1699829 845.3300171,1017.5799561 844.9199829,1017.9899902 	"/>
	<path class="st6" d="M1074.6400146,905.5199585v100.4700317c-0.1500244,0.0599976-0.3099365,0.1300049-0.460083,0.1900024
		c-2.039917,0.8599854-4.0898438,1.710022-6.1398926,2.5599976l-0.9300537,0.3900146
		c-0.0198975,0-0.039917,0.0100098-0.0599365,0.0199585c-1.2299805,0.5100098-2.4599609,1.0200195-3.7000732,1.5200195
		c-2.0098877,0.8300171-4.0499268,1.6599731-6.0599365,2.4799805c-0.0500488,0.0200195-0.0900879,0.0400391-0.1400146,0.0599976
		c-0.2401123,0.1000366-0.4700928,0.1900024-0.710083,0.2900391c-0.3598633,0.1400146-0.7099609,0.289978-1.0599365,0.4299927
		c-2.5799561,1.0499878-5.1700439,2.0899658-7.7600098,3.1199951c-0.9799805,0.3900146-1.960083,0.789978-2.9500732,1.1699829
		c-1.1699219,0.460022-2.329834,0.9299927-3.5,1.3900146c-1.1599121,0.4699707-2.329834,0.9299927-3.5,1.3800049
		c-6.1899414,2.4400024-12.4099121,4.8300781-18.6398926,7.1899414c-3.1100464,1.1800537-6.2300415,2.3500977-9.3600464,3.5100098
		c-2.9699707,1.1101074-5.9400024,2.2000732-8.9199829,3.2900391c-0.1500244,0.0600586-0.3099976,0.1099854-0.460022,0.1699219
		c-0.1300049-15.6998901-12.8800049-28.3699341-28.6099854-28.3699341c-15.8099976,0-28.6199951,12.8099976-28.6199951,28.6199341
		c0,6.6101074,2.2399902,12.7000732,6.0100098,17.5500488c-3.210022,1.0600586-6.4100342,2.1000977-9.6199951,3.1300049h-0.0100098
		c-2.4799805,0.8000488-4.9500122,1.5899658-7.4400024,2.3699951c-1.8800049,0.5900879-3.7600098,1.1900635-5.6400146,1.7900391
		c-1.7399902,0.5500488-3.4799805,1.0999756-5.2199707,1.6699219c-2,0.630127-3.9899902,1.2700195-5.9800415,1.9200439
		c-3.1499634,1.0100098-6.2999878,2.0400391-9.4199829,3.0699463c-0.5599976,0.1800537-1.1099854,0.3701172-1.6699829,0.5500488
		c-1.8400269,0.6101074-3.6799927,1.2099609-5.5100098,1.8200684c-1.8300171,0.6099854-3.6599731,1.2199707-5.4799805,1.8299561
		c-2.7700195,0.9300537-5.5200195,1.8599854-8.2700195,2.7900391c-11.789978,4.0098877-23.3900146,8.0599365-34.8099976,12.1600342
		v-71.4500732c13.6900024-6.1199951,27.6599731-12.2000122,41.9099731-18.2099609
		c10.9500122-4.6300049,21.8500366-9.3800049,32.6900024-14.2700195c2.7700195-1.2299805,5.5300293-2.4799805,8.2900391-3.75
		c1.9400024-0.8800049,3.8800049-1.7700195,5.8099976-2.6699829c1.3499756-0.6200562,2.6900024-1.2400513,4.0299683-1.8600464
		c3.3600464-1.5700073,6.7200317-3.1399536,10.0700073-4.7299805c3.0200195-1.4199829,6.0300293-2.8599854,9.0400391-4.3099976
		c1.9199829-0.9199829,3.8399658-1.8499756,5.7599487-2.7800293c1.9200439-0.9299927,3.8400269-1.8599854,5.75-2.7999878
		c3.8200073-1.8699951,7.6400146-3.7600098,11.4500122-5.6699829c1.9000244-0.9400024,3.7999878-1.9000244,5.710022-2.8599854
		c1.8999634-0.9500122,3.7999878-1.9100342,5.7000122-2.8800049c1.8999634-0.960022,3.789978-1.9299927,5.6900024-2.9100342
		c1.8899536-0.9599609,3.7799683-1.9400024,5.6699829-2.9199829c2.8399658-1.460022,5.6599731-2.9299927,8.4899902-4.4199829
		c3.0100098-1.5700073,6.0100098-3.1600342,9.0100708-4.75c2.5898438-1.3699951,5.1699219-2.75,7.7399902-4.1400146
		c2.8498535-1.5299683,5.6899414-3.0599976,8.5300293-4.6099854c2.7999268-1.5200195,5.5898438-3.0400391,8.369873-4.5800171
		c2.7900391-1.5299683,5.5700684-3.0700073,8.3400879-4.6199951c2.8399658-1.5800171,5.6799316-3.1699829,8.5100098-4.7600098
		c2.6899414-1.5200195,5.369873-3.039978,8.0499268-4.5599976
		C1074.6199951,905.5299683,1074.6300049,905.5299683,1074.6400146,905.5199585z"/>
	<path class="st6" d="M1374.8800049,700.3900146V850.789978c-75.2600098,46.0100098-157.0599365,90.8200073-243.0799561,130.1600342
		v-11.5599976L1155.6899414,945.5c2.6700439,1,5.5700684,1.539978,8.5900879,1.539978
		c13.6398926,0,24.6999512-11.0599976,24.6999512-24.7000122c0-13.6399536-11.0600586-24.6999512-24.6999512-24.6999512
		c-13.6400146,0-24.6999512,11.0599976-24.6999512,24.6999512c0,4.0200195,0.9599609,7.8099976,2.6599121,11.1600342
		l-28.4399414,28.4400024v27.1300049c-7.0300293,3.1499634-14.0800781,6.2399902-21.1600342,9.2699585v-97.75
		c6.2799072-2.4499512,11.3099365-7.4099731,13.8599854-13.6499634c0.5900879-0.3400269,1.1799316-0.7000122,1.7700195-1.0499878
		c2.4399414-1.4500122,4.8800049-2.9100342,7.3100586-4.3800049c0.1599121-0.0900269,0.3099365-0.1800537,0.4699707-0.2800293
		c2.8999023-1.7399902,5.7900391-3.4899902,8.6799316-5.2600098c1.1999512-0.7199707,2.4000244-1.4500122,3.6000977-2.1900024
		c2.1899414-1.3299561,4.369873-2.6699829,6.5499268-4.0199585c0.0699463-0.0400391,0.1400146-0.0800171,0.2199707-0.1400146
		c2.5699463-1.5700073,5.1300049-3.1600342,7.6900635-4.7600098c2.3999023-1.4799805,4.8000488-2.9799805,7.1899414-4.4899902
		c5.0100098-3.1400146,9.9899902-6.2999878,14.9599609-9.4700317c1.9100342-1.2199707,3.8200684-2.4400024,5.7199707-3.6699829
		c2.5800781-1.6500244,5.1501465-3.3099976,7.710083-4.9799805c1.4700928-0.9500122,2.9300537-1.9000244,4.4000244-2.8699951
		c1.4599609-0.9400024,2.9199219-1.9000244,4.3800049-2.8600464c2.3499756-1.5299683,4.6900635-3.0699463,7.0198975-4.6199951
		c2.3400879-1.539978,4.670166-3.0799561,6.9899902-4.6399536c2.3300781-1.5400391,4.6501465-3.0900269,6.960083-4.6500244
		c2.3199463-1.5499878,4.6300049-3.1099854,6.9300537-4.6699829c4.6098633-3.1100464,9.1999512-6.2399902,13.7600098-9.3800049
		c2.2800293-1.5599976,4.5599365-3.1300049,6.8299561-4.710022c2.2698975-1.5599976,4.539917-3.1400146,6.7999268-4.7199707
		c7.6900635-5.3500366,15.3200684-10.7300415,22.880127-16.1400146c1.7799072-1.25,3.5499268-2.5200195,5.3199463-3.7999878
		c2.8099365-2.0100098,5.6099854-4.0300293,8.4000244-6.0499878c1.3999023-1.0100098,2.8000488-2.0200195,4.1899414-3.0400391
		c1.3900146-1.0100098,2.7800293-2.0200195,4.1700439-3.039978c2.7799072-2.0200195,5.5499268-4.0499878,8.3099365-6.0900269
		c2.7600098-2.0299683,5.5100098-4.0599976,8.25-6.0999756c5.6900635-4.210022,11.3400879-8.4400024,16.9499512-12.6799927
		c2.4001465-1.8099976,4.8000488-3.6300049,7.1900635-5.4400024c0.2800293-0.2200317,0.5699463-0.4299927,0.8499756-0.6500244
		c2.4400635-1.8499756,4.8701172-3.7099609,7.3000488-5.5700073c2.0300293-1.5599976,4.0600586-3.1199951,6.0900879-4.6799927
		c3.2598877-2.5,6.5-5.0100098,9.7199707-7.5299683c1.1398926-0.8800049,2.289917-1.7700195,3.4199219-2.6600342
		C1362.0100098,710.5700073,1368.4799805,705.4799805,1374.8800049,700.3900146z"/>
	<path class="st6" d="M1705.3400879,615.4699707c-4.0400391,3.3099976-8.1801758,6.6700439-12.4001465,10.0900269
		c-2.0300293,1.6400146-4.0899658,3.2999878-6.1599121,4.9699707c-3.6700439,2.9500122-7.4000244,5.9400024-11.1899414,8.960022
		c-1.4801025,1.1900024-2.9801025,2.3800049-4.4801025,3.5700073c-2.6099854,2.0700073-5.2399902,4.1599731-7.8900146,6.25
		c-3.0200195,2.3800049-6.0799561,4.789978-9.1799316,7.2199707c-2.3000488,1.7999878-4.630127,3.6199951-6.9799805,5.4400024
		c-7.4300537,5.7800293-15.0500488,11.6600342-22.8701172,17.6300049c-2.9099121,2.2200317-5.8399658,4.460022-8.8099365,6.7000122
		c-1.5200195,1.1500244-3.039917,2.3099976-4.5799561,3.460022c-7.6600342,5.789978-15.5,11.6499634-23.5,17.5799561
		c-2.9699707,2.1900024-5.9699707,4.4000244-8.9899902,6.6199951c-1.630127,1.2000122-3.2700195,2.4100342-4.9200439,3.6100464
		c-1.6300049,1.1999512-3.2700195,2.3899536-4.9100342,3.5799561c-4.5200195,3.2900391-9.0799561,6.6000366-13.6899414,9.9200439
		c-2.3601074,1.6999512-4.7299805,3.3999634-7.1201172,5.1199951c-6.5198975,4.6499634-13.119873,9.3399658-19.7999268,14.039978
		c-3.4799805,2.4500122-6.9799805,4.9100342-10.5100098,7.3599854c-3.5299072,2.4700317-7.0899658,4.9299927-10.6600342,7.4000244
		c-1.7900391,1.2399902-3.5799561,2.4799805-5.3798828,3.710022c-1.8000488,1.2399902-3.6000977,2.4699707-5.4101563,3.7099609
		c-1.8099365,1.2399902-3.619873,2.4800415-5.4499512,3.7200317c-9.1099854,6.1999512-18.3599854,12.4299927-27.75,18.6599731
		c-1.869873,1.25-3.75,2.5-5.6398926,3.7399902c-1.8901367,1.25-3.7800293,2.5-5.6800537,3.75
		c-7.2000732,4.7300415-14.4700928,9.460022-21.8099365,14.1900024c-2.2399902,1.4500122-4.5,2.9000244-6.7600098,4.3400269
		c-9.8500977,6.3099976-19.8300781,12.6099854-29.9400635,18.8999634V695.7399902
		c9.0499268-3.539978,15.5-12.2700195,15.6900635-22.5300293c11.6298828-9.5299683,23.0100098-19,34.1298828-28.3999634
		c2.0900879-1.7600098,4.1700439-3.5200195,6.2399902-5.2900391c0.4300537-0.3599854,0.8601074-0.7199707,1.2900391-1.0899658
		c1.8200684-1.5499878,3.6300049-3.0900269,5.4299316-4.6300049c0.8901367-0.7600098,1.7800293-1.5200195,2.6601563-2.2800293
		c1.5998535-1.3599854,3.1899414-2.7299805,4.7799072-4.0999756c2.3900146-2.0499878,4.7700195-4.0999756,7.1300049-6.1500244
		c2.3300781-2.0199585,4.6500244-4.0299683,6.9499512-6.039978c1.4001465-1.210022,2.7900391-2.4199829,4.1700439-3.6400146
		c2.5799561-2.25,5.1500244-4.5,7.7000732-6.75c2.5499268-2.2399902,5.0899658-4.4799805,7.6098633-6.7199707
		c0.670166-0.5900269,1.3400879-1.1799927,2-1.7700195c5.6401367-5,11.1900635-9.9699707,16.6501465-14.8900146
		c1.6098633-1.4400024,3.2099609-2.8800049,4.7999268-4.3299561c3.1800537-2.8800049,6.3399658-5.7399902,9.460083-8.5900269
		c3.1298828-2.8499756,6.2199707-5.6799927,9.2799072-8.5c1.5799561-1.4500122,3.1500244-2.8999634,4.710083-4.3399658
		c0.119873-0.1100464,0.2299805-0.2200317,0.3498535-0.3200073c2.0300293-1.8699951,4.0400391-3.7399902,6.0400391-5.6000366
		c2.1500244-1.9899902,4.2800293-3.9799805,6.3901367-5.9400024c1.9799805-1.8499756,3.9499512-3.6900024,5.8999023-5.5299683
		c1.5200195-1.4299927,3.0200195-2.8400269,4.5200195-4.25c1.4899902-1.4100342,2.9799805-2.8099976,4.4499512-4.210022
		c1.9699707-1.8599854,3.9300537-3.7099609,5.8601074-5.5599976c1.9499512-1.8499756,3.8898926-3.7000122,5.8099365-5.539978
		c1.8900146-1.8099976,3.7700195-3.6099854,5.6300049-5.3900146c3.75-3.6099854,7.4299316-7.1599731,11.0400391-10.6799927
		c1.8099365-1.75,3.5999756-3.4899902,5.3798828-5.2299805c4.4400635-4.3300171,8.7700195-8.5800171,13-12.7600098
		C1659.8100586,517.2099609,1691.0100098,562.8499756,1705.3400879,615.4699707z"/>
	<path class="st7" d="M1416.3000488,963.9099731c-2.7600098,1.3300171-5.5300293,2.6699829-8.3100586,4
		c-1.3900146,0.6699829-2.7800293,1.3400269-4.1699219,1.9899902c-1.3901367,0.6600342-2.7800293,1.3200073-4.1800537,1.9900513
		c-5.5799561,2.6399536-11.1900635,5.2799683-16.8299561,7.9099731c-2.8200684,1.3099976-5.6401367,2.6199951-8.4799805,3.9299927
		c-2.8300781,1.2999878-5.670166,2.6099854-8.5200195,3.9100342c-3.2399902,1.4899902-6.5,2.9599609-9.7700195,4.4299927
		c-2.3500977,1.0599976-4.6999512,2.1199951-7.0500488,3.1799927c-3.2600098,1.4500122-6.5200195,2.9099731-9.8000488,4.3499756
		c-2.6098633,1.1600342-5.2299805,2.3099976-7.8598633,3.460022c-8.0700684,3.539978-16.1900635,7.039978-24.3701172,10.5199585
		c-2.2700195,0.960022-4.5500488,1.9300537-6.8399658,2.8800049c-13.8499756,5.8400269-27.8299561,11.5600586-41.9400635,17.1700439
		c-2.6398926,1.0499268-5.289917,2.0999756-7.9499512,3.1400146c-2.5400391,1-5.0799561,2-7.6300049,2.9799805
		c-2.5098877,0.9799805-5.0198975,1.9499512-7.539917,2.9099121c-1.9100342,0.7399902-3.8300781,1.4801025-5.7600098,2.210083
		c-7.6600342,2.9200439-15.3500977,5.7999268-23.0800781,8.6400146c-2.1799316,0.8100586-4.3599854,1.6099854-6.5500488,2.3999023
		c-7.3099365,2.6601563-14.6398926,5.2800293-22,7.8601074c-1.4399414,0.5100098-2.8798828,1.0200195-4.3199463,1.5200195
		c-8.0499268,2.7999268-16.1400146,5.5599365-24.25,8.2600098c-2.6400146,0.8898926-5.2799072,1.7600098-7.9300537,2.6298828
		c-2.8498535,0.9400635-5.6999512,1.8701172-8.5599365,2.7900391c-0.2698975,0.1000977-0.539917,0.1799316-0.8099365,0.2700195
		v-98.289978c86.0200195-39.3400269,167.8199463-84.1500244,243.0799561-130.1600342v71.7000122L1416.3000488,963.9099731z"/>
	<path class="st7" d="M1714.0800781,680.9400024c0,54.6199951-17.630127,105.0999756-47.4899902,146.0899658
		c-2.7700195,1.6799927-5.5600586,3.3800049-8.3701172,5.0800171c-0.3599854,0.2199707-0.7299805,0.4400024-1.0999756,0.6599731
		c-1.3900146,0.8400269-2.7999268,1.6900024-4.210083,2.5400391c-1.7999268,1.0899658-3.6098633,2.1799927-5.4299316,3.2699585
		c-1.4499512,0.8800049-2.9099121,1.75-4.3699951,2.6200562c-1.9899902,1.1999512-3.9899902,2.3899536-6,3.5899658
		c-6.0299072,3.5900269-12.1300049,7.2000122-18.3099365,10.8300171v-21.6000366
		c10.3499756-4.3099976,17.619873-14.5199585,17.619873-26.4299927c0-15.7999878-12.8099365-28.6199951-28.619873-28.6199951
		c-15.8100586,0-28.6201172,12.8200073-28.6201172,28.6199951c0,11.9100342,7.2700195,22.1199951,17.6201172,26.4299927v34.3700562
		c-50.1900635,28.8799438-105.0200195,58.4899902-163.380127,87.1799927l-40.539917-40.5400391v-75.3200073
		c10.1099854-6.289978,20.0899658-12.5899658,29.9400635-18.8999634c2.2600098-1.4400024,4.5200195-2.8900146,6.7600098-4.3400269
		c7.3398438-4.7299805,14.6098633-9.4599609,21.8099365-14.1900024c1.9000244-1.25,3.789917-2.5,5.6800537-3.75
		c1.8898926-1.2399902,3.7700195-2.4899902,5.6398926-3.7399902c9.3900146-6.2299805,18.6400146-12.460022,27.75-18.6599731
		c1.8300781-1.2399902,3.6400146-2.4800415,5.4499512-3.7200317c1.8100586-1.2399902,3.6101074-2.4699707,5.4101563-3.7099609
		c1.7999268-1.2300415,3.5898438-2.4700317,5.3798828-3.710022c3.5700684-2.4700317,7.130127-4.9299927,10.6600342-7.4000244
		c3.5300293-2.4499512,7.0300293-4.9099731,10.5100098-7.3599854c6.6800537-4.7000122,13.2800293-9.3900146,19.7999268-14.039978
		c2.3901367-1.710022,4.7600098-3.4200439,7.1201172-5.1199951c4.6099854-3.3200073,9.1699219-6.6300049,13.6899414-9.9200439
		c1.6400146-1.1900024,3.2800293-2.3800049,4.9100342-3.5799561c1.6500244-1.2000122,3.289917-2.4100342,4.9200439-3.6100464
		c3.0200195-2.2099609,6.0200195-4.4199829,8.9899902-6.6199951c8-5.9299927,15.8399658-11.789978,23.5-17.5799561
		c1.5400391-1.1500244,3.0599365-2.3099976,4.5799561-3.460022c2.9699707-2.2399902,5.9000244-4.4799805,8.8099365-6.7000122
		c7.8200684-5.9699707,15.4400635-11.8499756,22.8701172-17.6300049c2.3498535-1.8200073,4.6799316-3.6400146,6.9799805-5.4400024
		c3.0999756-2.4299927,6.1599121-4.8399658,9.1799316-7.2199707c2.6500244-2.0900269,5.2800293-4.1799927,7.8900146-6.25
		c1.5-1.1900024,3-2.3800049,4.4801025-3.5700073c3.789917-3.0200195,7.5198975-6.0100098,11.1899414-8.960022
		c2.0699463-1.6699829,4.1298828-3.3299561,6.1599121-4.9699707c4.2199707-3.4199829,8.3601074-6.7800293,12.4001465-10.0900269
		C1711.0500488,636.3299561,1714.0800781,658.289978,1714.0800781,680.9400024z"/>
</g>
<g><polygon points="598.8499756,1349.8699951 598.6699829,1350.0799561 598.4500122,1349.8699951 	"/>
</g>
<g><polygon points="845.3300171,1017.5799561 844.9199829,1017.9899902 844.9199829,1017.1699829 	"/><polygon points="848.1900024,1349.8699951 848.4000244,1349.8499756 848.4000244,1349.8699951 	"/>
</g>
<g><polygon points="845.3300171,1017.5799561 844.9199829,1017.9899902 844.9199829,1017.1699829 	"/>
</g><g><polygon points="1074.6400146,1156.4899902 1074.6400146,1157.25 1074.2600098,1156.8699951 "/></g></svg>